<?xml version="1.0" encoding="UTF-8"?>
<svg id="Layer_2" data-name="Layer 2" xmlns="http://www.w3.org/2000/svg" xmlns:xlink="http://www.w3.org/1999/xlink" viewBox="0 0 150 150">
  <defs>
    <style>
      .cls-1, .cls-2, .cls-3 {
        fill: none;
      }

      .cls-4 {
        fill: #f86110;
      }

      .cls-2 {
        stroke: #614845;
      }

      .cls-2, .cls-3 {
        stroke-width: 10px;
      }

      .cls-3 {
        stroke: #fff;
        stroke-linecap: round;
      }

      .cls-5 {
        fill: #ffba08;
      }

      .cls-6 {
        clip-path: url(#clippath);
      }
    </style>
    <clipPath id="clippath">
      <rect class="cls-1" width="150" height="150"/>
    </clipPath>
  </defs>
  <g id="Layer_1-2" data-name="Layer 1">
    <g class="cls-6">
      <path class="cls-5" d="M111.47,101.04c0,14.67-4.72,25.59-11.82,32.82-7.12,7.25-17.01,11.16-28.05,11.16s-20.92-3.91-28.05-11.16c-7.11-7.23-11.82-18.15-11.82-32.82s5.7-29.92,13.88-41.62c4.08-5.82,8.66-10.58,13.26-13.84,4.63-3.28,8.99-4.85,12.72-4.85s8.09,1.56,12.72,4.85c4.6,3.26,9.18,8.01,13.26,13.84,8.19,11.69,13.88,27.04,13.88,41.62Z"/>
      <path class="cls-2" d="M111.47,101.04c0,14.67-4.72,25.59-11.82,32.82-7.12,7.25-17.01,11.16-28.05,11.16s-20.92-3.91-28.05-11.16c-7.11-7.23-11.82-18.15-11.82-32.82s5.7-29.92,13.88-41.62c4.08-5.82,8.66-10.58,13.26-13.84,4.63-3.28,8.99-4.85,12.72-4.85s8.09,1.56,12.72,4.85c4.6,3.26,9.18,8.01,13.26,13.84,8.19,11.69,13.88,27.04,13.88,41.62Z"/>
      <path class="cls-3" d="M58.3,66.25c-5.97,6.15-9.41,13.77-11.54,23.65"/>
      <path class="cls-4" d="M36.33,29.31c-.18-1.14,2.21-1.88,2.79-.9,3.73,6.31,9.64,12.95,16.81,9.44,8.85-4.33,13.18-18.87,14.96-27.04.23-1.05,2.09-1.1,2.37-.06,2.13,7.96,6.86,22.09,14.66,27.1,6.83,4.38,12.85-3.7,16.47-10.57.53-1,2.62-.41,2.48.72l-3.72,29.55c-.02.19-.1.36-.25.47-1.1.86-7.03,4.35-30.97,4.35s-29.92-3.53-30.98-4.36c-.14-.11-.21-.27-.24-.45l-4.39-28.25Z"/>
      <path class="cls-2" d="M36.33,29.31c-.18-1.14,2.21-1.88,2.79-.9,3.73,6.31,9.64,12.95,16.81,9.44,8.85-4.33,13.18-18.87,14.96-27.04.23-1.05,2.09-1.1,2.37-.06,2.13,7.96,6.86,22.09,14.66,27.1,6.83,4.38,12.85-3.7,16.47-10.57.53-1,2.62-.41,2.48.72l-3.72,29.55c-.02.19-.1.36-.25.47-1.1.86-7.03,4.35-30.97,4.35s-29.92-3.53-30.98-4.36c-.14-.11-.21-.27-.24-.45l-4.39-28.25Z"/>
    </g>
  </g>
</svg>